# xmcd CD database file
#
# Track frame offsets:
#	182
#	9127
#	24850
#	33192
#	45380
#	58540
#	71205
#	87087
#	100285
#	110222
#
# Disc length: 1685 seconds
#
# Revision: 2
# Processed by: cddbd v1.5.2PL0 Copyright (c) Steve Scherf et al.
# Submitted via: CDex 1.51
#
DISCID=7206930a
DTITLE=Boxcar Willie - King of the Hoboes Volume 1
DYEAR=1900
DGENRE=Country
TTITLE0=Don't Let The Stars Get In Your Eyes
TTITLE1=Kawliga
TTITLE2=Hey Good Lookin'
TTITLE3=I Can't Help It If I'm Still In Love With You
TTITLE4=T for Texas
TTITLE5=Peace In The Valley
TTITLE6=Red River Valley
TTITLE7=San Antonio Rose
TTITLE8=King Of The Road
TTITLE9=Mule Train
EXTD=
EXTT0=
EXTT1=
EXTT2=
EXTT3=
EXTT4=
EXTT5=
EXTT6=
EXTT7=
EXTT8=
EXTT9=
PLAYORDER=
